HIERARCHY
ROOT pelvis
{
  OFFSET 0 100 0
  CHANNELS 6 Xposition Yposition Zposition Zrotation Xrotation Yrotation
  JOINT pelvis_right_femur
  {
    OFFSET -10.78128 -3.44521 -0.5502486
    CHANNELS 3 Zrotation Xrotation Yrotation
    JOINT right_femur_tibia
    {
      OFFSET -0.8047443 -44.0398 -0.1307829
      CHANNELS 3 Zrotation Xrotation Yrotation
      JOINT right_tibia_foot
      {
        OFFSET 3.006224 -47.83518 -5
        CHANNELS 3 Zrotation Xrotation Yrotation
        End Site
        {
          OFFSET 0 -5 15
        }
      }
    }
  }
  JOINT pelvis_left_femur
  {
    OFFSET 10.78128 -3.44521 -0.5502486
    CHANNELS 3 Zrotation Xrotation Yrotation
    JOINT left_femur_tibia
    {
      OFFSET 0.8047443 -44.0398 -0.1307829
      CHANNELS 3 Zrotation Xrotation Yrotation
      JOINT left_tibia_foot
      {
        OFFSET -4.370144 -48.10324 -4.275266
        CHANNELS 3 Zrotation Xrotation Yrotation
        End Site
        {
          OFFSET 0 -5 15
        }
      }
    }
  }
  JOINT pelvis_spine1
  {
    OFFSET 0 6.468898 -3.129235
    CHANNELS 3 Zrotation Xrotation Yrotation
    JOINT spine1
    {
      OFFSET 0 23.15396 4.99043
      CHANNELS 3 Zrotation Xrotation Yrotation
      JOINT spine2
      {
        OFFSET 0 20.79997 -5.064912
        CHANNELS 3 Zrotation Xrotation Yrotation
        JOINT neck
        {
          OFFSET 0 14.38658 9.616178
          CHANNELS 3 Zrotation Xrotation Yrotation
          End Site
          {
            OFFSET 0 20 0
          }
        }
      }
      JOINT right_manubrium
      {
        OFFSET -5.722621 16.35077 3.967754
        CHANNELS 3 Zrotation Xrotation Yrotation
        JOINT right_clavicle
        {
          OFFSET -13.16364 1.694482 -4.693211
          CHANNELS 3 Zrotation Xrotation Yrotation
          JOINT right_humerus
          {
            OFFSET -28.5034 -0.3100689 -2.792744
            CHANNELS 3 Zrotation Xrotation Yrotation
            JOINT right_radius
            {
              OFFSET -25.15693 0.02248979 -1.271978
              CHANNELS 3 Zrotation Xrotation Yrotation
              End Site
              {
                OFFSET -15 0 0
              }
            }
          }
        }
      }
      JOINT left_manubrium
      {
        OFFSET 5.722621 16.35077 3.967754
        CHANNELS 3 Zrotation Xrotation Yrotation
        JOINT left_clavicle
        {
          OFFSET 13.16364 1.694482 -4.693211
          CHANNELS 3 Zrotation Xrotation Yrotation
          JOINT left_humerus
          {
            OFFSET 29.39168 -1.063119 -2.237045
            CHANNELS 3 Zrotation Xrotation Yrotation
            JOINT left_radius
            {
              OFFSET 24.59957 -0.9528479 0.9047498
              CHANNELS 3 Zrotation Xrotation Yrotation
              End Site
              {
                OFFSET 15 -0 -0
              }
            }
          }
        }
      }
    }
  }
}
MOTION
Frames: 13
Frame Time: 0.0416666666667
0 103.5113 0 0.5077798 -1.473079 0.03902104 3.529672 -16.44946 8.39526 -0 37.76882 -0 -6.956512 -16.0555 -4.408654 -6.186851 12.0188 -22.95679 -0 4.473967 -0 6.723888 -17.09656 25.30636 -2.328084 -3.384493 4.163608 2.279153 10.00212 -6.770115 1.709356 22.19758 6.736576 3.875838 -22.36974 8.891269 6.819976 -18.10062 11.99133 81.97711 30.1705 -16.4973 -0 0 16.46924 -11.20381 10.8032 5.55515 8.341517 -20.51665 -0.9449367 -95.87381 22.78189 21.25067 0 0 -9.275575 15.09538 19.8683 -4.844473
0.1974472 103.4077 1.712391 0.4251331 -0.5517775 0.09975838 4.109273 -19.72204 8.830093 -0 36.44353 -0 -6.016541 -15.40007 -4.210181 -6.325467 12.72644 -22.92914 -0 4.745975 -0 6.520465 -18.39164 25.09755 -2.340394 -3.10496 4.112917 2.431544 9.827644 -6.919094 1.633533 22.00222 6.856564 3.826703 -22.89363 9.009243 6.603205 -17.96969 11.85972 82.52908 31.12661 -16.77117 -0 0 15.66364 -10.79513 10.54571 5.599618 8.160412 -20.58188 -0.8579421 -94.9702 22.63635 20.54615 0 0 -10.74283 14.95086 18.81706 -4.456291
0.4052736 103.1314 3.648882 0.1148833 0.1377637 0.2094639 4.94825 -23.36414 8.265915 -0 33.09274 -0 -6.096698 -13.14989 -3.601979 -6.275438 13.4252 -22.16975 -0 5.284084 -0 6.433366 -19.75321 24.44577 -2.252842 -3.185752 4.260206 2.495745 9.754968 -7.069824 1.636056 21.65689 6.92207 3.75595 -23.4618 9.256448 6.507615 -18.25933 11.78733 82.91604 31.63253 -17.3106 -0 0 15.90188 -9.933673 10.31839 5.12473 8.220838 -20.66907 -0.715075 -94.74708 22.58265 20.63216 0 0 -12.05357 15.16825 18.35003 -4.445172
0.6260415 102.728 5.858858 -0.1586924 1.068445 0.3803659 5.699507 -26.68461 8.054092 -0 29.92401 -0 -5.711095 -11.64832 -3.154105 -6.220394 13.88894 -21.43626 -0 6.006197 -0 5.86426 -20.94204 23.47403 -2.21502 -3.071204 4.296036 2.61584 9.637203 -7.236985 1.594235 21.37652 7.011647 3.691819 -24.01105 9.428457 6.337164 -18.32337 11.68474 83.44222 32.38039 -17.75546 -0 0 15.55181 -9.3249 10.09872 4.942841 8.145077 -20.7687 -0.6107294 -94.10039 22.43669 20.24686 0 0 -13.52766 15.20947 17.53214 -4.245895
0.8524555 102.209 8.445945 -0.4997847 2.043709 0.6272293 6.479244 -29.68382 7.864658 -0 26.56887 -0 -5.291998 -10.59049 -2.838805 -6.042716 14.28126 -20.55646 -0 7.287341 -0 4.696955 -21.86959 21.93781 -2.166904 -3.014326 4.353864 2.713493 9.54671 -7.389587 1.566963 21.10187 7.081545 3.629202 -24.5097 9.597277 6.195131 -18.43944 11.60025 83.90554 32.98813 -18.19473 -0 0 15.37371 -8.724935 9.910882 4.719962 8.104829 -20.86383 -0.5116679 -93.59703 22.30558 19.99985 0 0 -14.84236 15.29458 16.86526 -4.115257
1.077297 101.6084 11.47712 -0.8747052 2.834875 0.9457599 7.156291 -31.87242 7.545065 -0 23.46247 -0 -5.106052 -9.730476 -2.614636 -5.775471 14.5748 -19.58159 -0 9.178413 -0 3.226398 -22.2978 20.08231 -2.137862 -2.896648 4.363424 2.82343 9.46239 -7.543914 1.523874 20.87137 7.152979 3.577677 -24.95165 9.71598 6.047977 -18.46371 11.51971 84.40367 33.62028 -18.60366 -0 0 14.99521 -8.280407 9.762094 4.624043 8.013718 -20.96548 -0.4507794 -92.99591 22.16375 19.62105 0 0 -16.10213 15.27073 16.14212 -3.884955
1.288798 100.9888 15.00911 -1.288045 3.301849 1.323642 7.709744 -33.0529 7.028752 -0 20.8398 -0 -5.300051 -9.103656 -2.517402 -5.394536 14.81159 -18.53629 -0 11.95897 -0 1.482816 -22.07446 17.94213 -2.119293 -2.770338 4.349925 2.921017 9.403813 -7.679413 1.478024 20.69421 7.215079 3.542382 -25.29951 9.788621 5.926405 -18.44475 11.45828 84.85979 34.16513 -18.96166 -0 0 14.58232 -7.983138 9.661311 4.603683 7.906804 -21.05757 -0.4280256 -92.45655 22.05451 19.26394 0 0 -17.14063 15.16048 15.50846 -3.596245
1.476768 100.4418 19.05567 -1.702585 3.349023 1.735079 8.104633 -33.05551 6.328511 -0 19.00283 -0 -5.923411 -8.704708 -2.552199 -4.928161 14.92872 -17.48458 -0 15.73862 -0 -0.339829 -21.11028 15.72777 -2.116974 -2.609521 4.298949 3.010248 9.373462 -7.797684 1.42124 20.58303 7.274062 3.529598 -25.54429 9.799618 5.828824 -18.34959 11.41736 85.29399 34.65185 -19.26632 -0 0 14.05419 -7.882348 9.613314 4.701529 7.761728 -21.14083 -0.4589418 -91.94479 21.98811 18.88914 0 0 -17.95596 14.90018 14.92866 -3.180051
1.635815 100.0868 23.59356 -2.079482 2.982543 2.149925 8.35824 -31.84629 5.533487 -0 18.09012 -0 -6.906258 -8.554221 -2.712197 -4.408673 14.76246 -16.45094 -0 20.64104 -0 -2.10434 -19.38604 13.59635 -2.130022 -2.424694 4.218812 3.079699 9.379434 -7.885588 1.35566 20.54927 7.32806 3.5447 -25.66512 9.743759 5.766377 -18.18872 11.40399 85.67002 35.04379 -19.49038 -0 0 13.4573 -8.000942 9.618608 4.918362 7.582842 -21.20268 -0.5486651 -91.5219 21.99123 18.55688 0 0 -18.4626 14.46782 14.44942 -2.619573
1.769532 100.0483 28.55326 -2.368775 2.294385 2.53823 8.49192 -29.49014 4.767487 -0 18.0525 -0 -8.086195 -8.621028 -2.945335 -3.884957 14.02261 -15.42452 -0 26.60299 -0 -3.6396 -16.98032 11.72414 -2.158954 -2.210418 4.113906 3.124637 9.425193 -7.93664 1.278452 20.59812 7.378822 3.59128 -25.65564 9.613813 5.739781 -17.96303 11.42151 85.97679 35.34133 -19.61469 -0 0 12.79423 -8.365735 9.674203 5.272631 7.360916 -21.23477 -0.7040144 -91.20039 22.0791 18.2889 0 0 -18.63693 13.82228 14.06396 -1.868634
1.89169 100.4225 33.82387 -2.524116 1.449593 2.875194 8.514101 -26.14571 4.143359 -0 18.58243 -0 -9.236101 -8.83042 -3.154159 -3.399401 12.33294 -14.34279 -0 33.35464 -0 -4.793239 -14.06394 10.24814 -2.203099 -1.969918 3.997346 3.136949 9.510801 -7.939437 1.189588 20.73182 7.424736 3.669851 -25.50989 9.406369 5.748706 -17.68927 11.47284 86.18161 35.5319 -19.602 -0 0 12.10852 -8.99295 9.772867 5.773537 7.092799 -21.22281 -0.9248446 -91.00817 22.26402 18.12834 0 0 -18.449 12.93999 13.77507 -0.9003807
2.023325 101.2304 39.262 -2.511096 0.623849 3.138403 8.407765 -22.03563 3.72253 -0 19.14133 -0 -10.12591 -9.106728 -3.217291 -2.962792 9.348902 -13.1275 -0 40.27804 -0 -5.433242 -10.91394 9.283563 -2.26167 -1.704811 3.886402 3.110934 9.62981 -7.884552 1.088619 20.94462 7.462768 3.77583 -25.23108 9.120321 5.785273 -17.39121 11.55806 86.25162 35.61386 -19.40982 -0 0 11.45067 -9.889124 9.904236 6.430578 6.773143 -21.15254 -1.205695 -90.95015 22.54425 18.10499 0 0 -17.91254 11.80627 13.55931 0.3071652
2.185459 102.3798 44.71335 -2.321855 -0.07910598 3.300477 8.151847 -17.40705 3.489516 -0 19.08344 -0 -10.60678 -9.444196 -3.046255 -2.526299 4.947463 -11.7329 -0 46.38167 -0 -5.49215 -7.893212 8.918639 -2.333665 -1.421509 3.804877 3.041946 9.76696 -7.762345 0.9772836 21.22296 7.485932 3.897578 -24.82884 8.75975 5.835408 -17.10563 11.67407 86.1414 35.58418 -18.98314 -0 0 10.89925 -11.04233 10.05491 7.243962 6.400722 -21.00772 -1.531177 -91.01839 22.90203 18.24212 0 0 -17.075 10.43421 13.38273 1.747806
